<mxfile host="app.diagrams.net" agent="Mozilla/5.0 (Windows NT 10.0; Win64; x64) AppleWebKit/537.36 (KHTML, like Gecko) Chrome/109.0.0.0 Safari/537.36" version="24.7.8">
  <diagram name="PÃ¡gina-1" id="XO2Rwu7_FPmkk9JsVhtK">
    <mxGraphModel dx="1414" dy="699" grid="0" gridSize="10" guides="1" tooltips="1" connect="1" arrows="1" fold="1" page="0" pageScale="1" pageWidth="827" pageHeight="1169" math="0" shadow="0">
      <root>
        <mxCell id="0" />
        <mxCell id="1" parent="0" />
        <mxCell id="lrWGy1iKq69Qsi9InHcV-18" value="user" style="swimlane;fontStyle=0;childLayout=stackLayout;horizontal=1;startSize=26;fillColor=none;horizontalStack=0;resizeParent=1;resizeParentMax=0;resizeLast=0;collapsible=1;marginBottom=0;whiteSpace=wrap;html=1;" vertex="1" parent="1">
          <mxGeometry x="2011" y="552" width="311" height="216" as="geometry">
            <mxRectangle x="263" y="456" width="58" height="26" as="alternateBounds" />
          </mxGeometry>
        </mxCell>
        <mxCell id="lrWGy1iKq69Qsi9InHcV-19" value="-id: Long" style="text;strokeColor=none;fillColor=none;align=left;verticalAlign=top;spacingLeft=4;spacingRight=4;overflow=hidden;rotatable=0;points=[[0,0.5],[1,0.5]];portConstraint=eastwest;whiteSpace=wrap;html=1;" vertex="1" parent="lrWGy1iKq69Qsi9InHcV-18">
          <mxGeometry y="26" width="311" height="26" as="geometry" />
        </mxCell>
        <mxCell id="lrWGy1iKq69Qsi9InHcV-20" value="-username: String" style="text;strokeColor=none;fillColor=none;align=left;verticalAlign=top;spacingLeft=4;spacingRight=4;overflow=hidden;rotatable=0;points=[[0,0.5],[1,0.5]];portConstraint=eastwest;whiteSpace=wrap;html=1;" vertex="1" parent="lrWGy1iKq69Qsi9InHcV-18">
          <mxGeometry y="52" width="311" height="26" as="geometry" />
        </mxCell>
        <mxCell id="lrWGy1iKq69Qsi9InHcV-21" value="-password: String" style="text;strokeColor=none;fillColor=none;align=left;verticalAlign=top;spacingLeft=4;spacingRight=4;overflow=hidden;rotatable=0;points=[[0,0.5],[1,0.5]];portConstraint=eastwest;whiteSpace=wrap;html=1;" vertex="1" parent="lrWGy1iKq69Qsi9InHcV-18">
          <mxGeometry y="78" width="311" height="26" as="geometry" />
        </mxCell>
        <mxCell id="lrWGy1iKq69Qsi9InHcV-22" value="-rol&lt;span style=&quot;background-color: initial;&quot;&gt;e: String&lt;/span&gt;" style="text;strokeColor=none;fillColor=none;align=left;verticalAlign=top;spacingLeft=4;spacingRight=4;overflow=hidden;rotatable=0;points=[[0,0.5],[1,0.5]];portConstraint=eastwest;whiteSpace=wrap;html=1;" vertex="1" parent="lrWGy1iKq69Qsi9InHcV-18">
          <mxGeometry y="104" width="311" height="26" as="geometry" />
        </mxCell>
        <mxCell id="lrWGy1iKq69Qsi9InHcV-23" value="" style="line;strokeWidth=1;fillColor=none;align=left;verticalAlign=middle;spacingTop=-1;spacingLeft=3;spacingRight=3;rotatable=0;labelPosition=right;points=[];portConstraint=eastwest;strokeColor=inherit;" vertex="1" parent="lrWGy1iKq69Qsi9InHcV-18">
          <mxGeometry y="130" width="311" height="8" as="geometry" />
        </mxCell>
        <mxCell id="lrWGy1iKq69Qsi9InHcV-24" value="+User()&lt;div&gt;&lt;br&gt;&lt;/div&gt;" style="text;strokeColor=none;fillColor=none;align=left;verticalAlign=top;spacingLeft=4;spacingRight=4;overflow=hidden;rotatable=0;points=[[0,0.5],[1,0.5]];portConstraint=eastwest;whiteSpace=wrap;html=1;" vertex="1" parent="lrWGy1iKq69Qsi9InHcV-18">
          <mxGeometry y="138" width="311" height="26" as="geometry" />
        </mxCell>
        <mxCell id="lrWGy1iKq69Qsi9InHcV-25" value="+User(String username, String password, String role)" style="text;strokeColor=none;fillColor=none;align=left;verticalAlign=top;spacingLeft=4;spacingRight=4;overflow=hidden;rotatable=0;points=[[0,0.5],[1,0.5]];portConstraint=eastwest;whiteSpace=wrap;html=1;" vertex="1" parent="lrWGy1iKq69Qsi9InHcV-18">
          <mxGeometry y="164" width="311" height="26" as="geometry" />
        </mxCell>
        <mxCell id="lrWGy1iKq69Qsi9InHcV-26" value="// Getters and setters are available for all attributes" style="text;strokeColor=none;fillColor=none;align=left;verticalAlign=top;spacingLeft=4;spacingRight=4;overflow=hidden;rotatable=0;points=[[0,0.5],[1,0.5]];portConstraint=eastwest;whiteSpace=wrap;html=1;" vertex="1" parent="lrWGy1iKq69Qsi9InHcV-18">
          <mxGeometry y="190" width="311" height="26" as="geometry" />
        </mxCell>
        <mxCell id="lrWGy1iKq69Qsi9InHcV-27" style="edgeStyle=none;curved=1;rounded=0;orthogonalLoop=1;jettySize=auto;html=1;entryX=0.5;entryY=0;entryDx=0;entryDy=0;fontSize=12;startSize=8;endSize=8;endArrow=open;endFill=0;" edge="1" parent="1" source="lrWGy1iKq69Qsi9InHcV-28" target="lrWGy1iKq69Qsi9InHcV-18">
          <mxGeometry relative="1" as="geometry" />
        </mxCell>
        <mxCell id="lrWGy1iKq69Qsi9InHcV-28" value="Post" style="swimlane;fontStyle=0;childLayout=stackLayout;horizontal=1;startSize=26;fillColor=none;horizontalStack=0;resizeParent=1;resizeParentMax=0;resizeLast=0;collapsible=1;marginBottom=0;whiteSpace=wrap;html=1;strokeWidth=1;fontSize=12;verticalAlign=middle;spacing=2;" vertex="1" parent="1">
          <mxGeometry x="2011" y="241" width="311" height="268" as="geometry" />
        </mxCell>
        <mxCell id="lrWGy1iKq69Qsi9InHcV-29" value="-id: Long" style="text;strokeColor=none;fillColor=none;align=left;verticalAlign=top;spacingLeft=4;spacingRight=4;overflow=hidden;rotatable=0;points=[[0,0.5],[1,0.5]];portConstraint=eastwest;whiteSpace=wrap;html=1;" vertex="1" parent="lrWGy1iKq69Qsi9InHcV-28">
          <mxGeometry y="26" width="311" height="26" as="geometry" />
        </mxCell>
        <mxCell id="lrWGy1iKq69Qsi9InHcV-30" value="-user: User" style="text;strokeColor=none;fillColor=none;align=left;verticalAlign=top;spacingLeft=4;spacingRight=4;overflow=hidden;rotatable=0;points=[[0,0.5],[1,0.5]];portConstraint=eastwest;whiteSpace=wrap;html=1;" vertex="1" parent="lrWGy1iKq69Qsi9InHcV-28">
          <mxGeometry y="52" width="311" height="26" as="geometry" />
        </mxCell>
        <mxCell id="lrWGy1iKq69Qsi9InHcV-31" value="-userId: Long" style="text;strokeColor=none;fillColor=none;align=left;verticalAlign=top;spacingLeft=4;spacingRight=4;overflow=hidden;rotatable=0;points=[[0,0.5],[1,0.5]];portConstraint=eastwest;whiteSpace=wrap;html=1;" vertex="1" parent="lrWGy1iKq69Qsi9InHcV-28">
          <mxGeometry y="78" width="311" height="26" as="geometry" />
        </mxCell>
        <mxCell id="lrWGy1iKq69Qsi9InHcV-32" value="-title: String" style="text;strokeColor=none;fillColor=none;align=left;verticalAlign=top;spacingLeft=4;spacingRight=4;overflow=hidden;rotatable=0;points=[[0,0.5],[1,0.5]];portConstraint=eastwest;whiteSpace=wrap;html=1;" vertex="1" parent="lrWGy1iKq69Qsi9InHcV-28">
          <mxGeometry y="104" width="311" height="26" as="geometry" />
        </mxCell>
        <mxCell id="lrWGy1iKq69Qsi9InHcV-33" value="-content: String" style="text;strokeColor=none;fillColor=none;align=left;verticalAlign=top;spacingLeft=4;spacingRight=4;overflow=hidden;rotatable=0;points=[[0,0.5],[1,0.5]];portConstraint=eastwest;whiteSpace=wrap;html=1;" vertex="1" parent="lrWGy1iKq69Qsi9InHcV-28">
          <mxGeometry y="130" width="311" height="26" as="geometry" />
        </mxCell>
        <mxCell id="lrWGy1iKq69Qsi9InHcV-34" value="-createdAt: LocalDateTime" style="text;strokeColor=none;fillColor=none;align=left;verticalAlign=top;spacingLeft=4;spacingRight=4;overflow=hidden;rotatable=0;points=[[0,0.5],[1,0.5]];portConstraint=eastwest;whiteSpace=wrap;html=1;" vertex="1" parent="lrWGy1iKq69Qsi9InHcV-28">
          <mxGeometry y="156" width="311" height="26" as="geometry" />
        </mxCell>
        <mxCell id="lrWGy1iKq69Qsi9InHcV-35" value="" style="line;strokeWidth=1;fillColor=none;align=left;verticalAlign=middle;spacingTop=-1;spacingLeft=3;spacingRight=3;rotatable=0;labelPosition=right;points=[];portConstraint=eastwest;strokeColor=inherit;" vertex="1" parent="lrWGy1iKq69Qsi9InHcV-28">
          <mxGeometry y="182" width="311" height="8" as="geometry" />
        </mxCell>
        <mxCell id="lrWGy1iKq69Qsi9InHcV-36" value="+post()&lt;span style=&quot;color: rgba(0, 0, 0, 0); font-family: monospace; font-size: 0px; white-space: nowrap;&quot;&gt;%3CmxGraphModel%3E%3Croot%3E%3CmxCell%20id%3D%220%22%2F%3E%3CmxCell%20id%3D%221%22%20parent%3D%220%22%2F%3E%3CmxCell%20id%3D%222%22%20value%3D%22%2F%2F%20Getters%20and%20setters%20are%20available%20for%20all%20attributes%22%20style%3D%22text%3BstrokeColor%3Dnone%3BfillColor%3Dnone%3Balign%3Dleft%3BverticalAlign%3Dtop%3BspacingLeft%3D4%3BspacingRight%3D4%3Boverflow%3Dhidden%3Brotatable%3D0%3Bpoints%3D%5B%5B0%2C0.5%5D%2C%5B1%2C0.5%5D%5D%3BportConstraint%3Deastwest%3BwhiteSpace%3Dwrap%3Bhtml%3D1%3B%22%20vertex%3D%221%22%20parent%3D%221%22%3E%3CmxGeometry%20x%3D%22236%22%20y%3D%22442%22%20width%3D%22311%22%20height%3D%2226%22%20as%3D%22geometry%22%2F%3E%3C%2FmxCell%3E%3C%2Froot%3E%3C%2FmxGraphModel%3E&lt;/span&gt;" style="text;strokeColor=none;fillColor=none;align=left;verticalAlign=top;spacingLeft=4;spacingRight=4;overflow=hidden;rotatable=0;points=[[0,0.5],[1,0.5]];portConstraint=eastwest;whiteSpace=wrap;html=1;" vertex="1" parent="lrWGy1iKq69Qsi9InHcV-28">
          <mxGeometry y="190" width="311" height="26" as="geometry" />
        </mxCell>
        <mxCell id="lrWGy1iKq69Qsi9InHcV-37" value="// Getters and setters are available for all attributes" style="text;strokeColor=none;fillColor=none;align=left;verticalAlign=top;spacingLeft=4;spacingRight=4;overflow=hidden;rotatable=0;points=[[0,0.5],[1,0.5]];portConstraint=eastwest;whiteSpace=wrap;html=1;" vertex="1" parent="lrWGy1iKq69Qsi9InHcV-28">
          <mxGeometry y="216" width="311" height="26" as="geometry" />
        </mxCell>
        <mxCell id="lrWGy1iKq69Qsi9InHcV-38" value="+getTime(): String" style="text;strokeColor=none;fillColor=none;align=left;verticalAlign=top;spacingLeft=4;spacingRight=4;overflow=hidden;rotatable=0;points=[[0,0.5],[1,0.5]];portConstraint=eastwest;whiteSpace=wrap;html=1;" vertex="1" parent="lrWGy1iKq69Qsi9InHcV-28">
          <mxGeometry y="242" width="311" height="26" as="geometry" />
        </mxCell>
        <mxCell id="lrWGy1iKq69Qsi9InHcV-39" value="&lt;p style=&quot;margin:0px;margin-top:4px;text-align:center;&quot;&gt;&lt;i&gt;&amp;lt;&amp;lt;Interface&amp;gt;&amp;gt;&lt;/i&gt;&lt;br&gt;&lt;b&gt;PostRepository&lt;/b&gt;&lt;/p&gt;&lt;hr size=&quot;1&quot; style=&quot;border-style:solid;&quot;&gt;&lt;p style=&quot;margin:0px;margin-left:4px;&quot;&gt;&lt;br&gt;&lt;/p&gt;&lt;hr size=&quot;1&quot; style=&quot;border-style:solid;&quot;&gt;&lt;p style=&quot;margin:0px;margin-left:4px;&quot;&gt;~&lt;span style=&quot;background-color: initial;&quot;&gt;findByUsername(String username): List&amp;lt;Post&amp;gt;&lt;/span&gt;&lt;/p&gt;" style="verticalAlign=top;align=left;overflow=fill;html=1;whiteSpace=wrap;" vertex="1" parent="1">
          <mxGeometry x="1589" y="325" width="282" height="100" as="geometry" />
        </mxCell>
        <mxCell id="lrWGy1iKq69Qsi9InHcV-40" value="&lt;p style=&quot;margin:0px;margin-top:4px;text-align:center;&quot;&gt;&lt;i&gt;&amp;lt;&amp;lt;Interface&amp;gt;&amp;gt;&lt;/i&gt;&lt;br&gt;&lt;b&gt;UserRepository&lt;/b&gt;&lt;/p&gt;&lt;hr size=&quot;1&quot; style=&quot;border-style:solid;&quot;&gt;&lt;p style=&quot;margin:0px;margin-left:4px;&quot;&gt;&lt;br&gt;&lt;/p&gt;&lt;hr size=&quot;1&quot; style=&quot;border-style:solid;&quot;&gt;&lt;p style=&quot;margin:0px;margin-left:4px;&quot;&gt;~findByUsername(String username): UserDetails&lt;/p&gt;" style="verticalAlign=top;align=left;overflow=fill;html=1;whiteSpace=wrap;" vertex="1" parent="1">
          <mxGeometry x="1591" y="610" width="278" height="100" as="geometry" />
        </mxCell>
        <mxCell id="lrWGy1iKq69Qsi9InHcV-41" value="UserService" style="swimlane;fontStyle=0;childLayout=stackLayout;horizontal=1;startSize=26;fillColor=none;horizontalStack=0;resizeParent=1;resizeParentMax=0;resizeLast=0;collapsible=1;marginBottom=0;whiteSpace=wrap;html=1;" vertex="1" parent="1">
          <mxGeometry x="1191" y="624" width="314" height="86" as="geometry" />
        </mxCell>
        <mxCell id="lrWGy1iKq69Qsi9InHcV-42" value="-userRepository: UserRepository" style="text;strokeColor=none;fillColor=none;align=left;verticalAlign=top;spacingLeft=4;spacingRight=4;overflow=hidden;rotatable=0;points=[[0,0.5],[1,0.5]];portConstraint=eastwest;whiteSpace=wrap;html=1;" vertex="1" parent="lrWGy1iKq69Qsi9InHcV-41">
          <mxGeometry y="26" width="314" height="26" as="geometry" />
        </mxCell>
        <mxCell id="lrWGy1iKq69Qsi9InHcV-43" value="" style="line;strokeWidth=1;fillColor=none;align=left;verticalAlign=middle;spacingTop=-1;spacingLeft=3;spacingRight=3;rotatable=0;labelPosition=right;points=[];portConstraint=eastwest;strokeColor=inherit;" vertex="1" parent="lrWGy1iKq69Qsi9InHcV-41">
          <mxGeometry y="52" width="314" height="8" as="geometry" />
        </mxCell>
        <mxCell id="lrWGy1iKq69Qsi9InHcV-44" value="+loadUserByUsername(String username): UserDetails" style="text;strokeColor=none;fillColor=none;align=left;verticalAlign=top;spacingLeft=4;spacingRight=4;overflow=hidden;rotatable=0;points=[[0,0.5],[1,0.5]];portConstraint=eastwest;whiteSpace=wrap;html=1;" vertex="1" parent="lrWGy1iKq69Qsi9InHcV-41">
          <mxGeometry y="60" width="314" height="26" as="geometry" />
        </mxCell>
        <mxCell id="lrWGy1iKq69Qsi9InHcV-45" value="PostService" style="swimlane;fontStyle=0;childLayout=stackLayout;horizontal=1;startSize=26;fillColor=none;horizontalStack=0;resizeParent=1;resizeParentMax=0;resizeLast=0;collapsible=1;marginBottom=0;whiteSpace=wrap;html=1;" vertex="1" parent="1">
          <mxGeometry x="1191" y="257" width="309.5" height="242" as="geometry" />
        </mxCell>
        <mxCell id="lrWGy1iKq69Qsi9InHcV-46" value="-postRepository: PostRepository" style="text;strokeColor=none;fillColor=none;align=left;verticalAlign=top;spacingLeft=4;spacingRight=4;overflow=hidden;rotatable=0;points=[[0,0.5],[1,0.5]];portConstraint=eastwest;whiteSpace=wrap;html=1;" vertex="1" parent="lrWGy1iKq69Qsi9InHcV-45">
          <mxGeometry y="26" width="309.5" height="26" as="geometry" />
        </mxCell>
        <mxCell id="lrWGy1iKq69Qsi9InHcV-47" value="" style="line;strokeWidth=1;fillColor=none;align=left;verticalAlign=middle;spacingTop=-1;spacingLeft=3;spacingRight=3;rotatable=0;labelPosition=right;points=[];portConstraint=eastwest;strokeColor=inherit;" vertex="1" parent="lrWGy1iKq69Qsi9InHcV-45">
          <mxGeometry y="52" width="309.5" height="8" as="geometry" />
        </mxCell>
        <mxCell id="lrWGy1iKq69Qsi9InHcV-48" value="+newPost(Post post): ResponseEntity" style="text;strokeColor=none;fillColor=none;align=left;verticalAlign=top;spacingLeft=4;spacingRight=4;overflow=hidden;rotatable=0;points=[[0,0.5],[1,0.5]];portConstraint=eastwest;whiteSpace=wrap;html=1;" vertex="1" parent="lrWGy1iKq69Qsi9InHcV-45">
          <mxGeometry y="60" width="309.5" height="26" as="geometry" />
        </mxCell>
        <mxCell id="lrWGy1iKq69Qsi9InHcV-49" value="+deletePost(Long id): ResponseEntity" style="text;strokeColor=none;fillColor=none;align=left;verticalAlign=top;spacingLeft=4;spacingRight=4;overflow=hidden;rotatable=0;points=[[0,0.5],[1,0.5]];portConstraint=eastwest;whiteSpace=wrap;html=1;" vertex="1" parent="lrWGy1iKq69Qsi9InHcV-45">
          <mxGeometry y="86" width="309.5" height="26" as="geometry" />
        </mxCell>
        <mxCell id="lrWGy1iKq69Qsi9InHcV-50" value="+updatePost(Long id, Post newPost): ResponseEntity" style="text;strokeColor=none;fillColor=none;align=left;verticalAlign=top;spacingLeft=4;spacingRight=4;overflow=hidden;rotatable=0;points=[[0,0.5],[1,0.5]];portConstraint=eastwest;whiteSpace=wrap;html=1;" vertex="1" parent="lrWGy1iKq69Qsi9InHcV-45">
          <mxGeometry y="112" width="309.5" height="26" as="geometry" />
        </mxCell>
        <mxCell id="lrWGy1iKq69Qsi9InHcV-51" value="+getAllPosts(): List&amp;lt;Post&amp;gt;" style="text;strokeColor=none;fillColor=none;align=left;verticalAlign=top;spacingLeft=4;spacingRight=4;overflow=hidden;rotatable=0;points=[[0,0.5],[1,0.5]];portConstraint=eastwest;whiteSpace=wrap;html=1;" vertex="1" parent="lrWGy1iKq69Qsi9InHcV-45">
          <mxGeometry y="138" width="309.5" height="26" as="geometry" />
        </mxCell>
        <mxCell id="lrWGy1iKq69Qsi9InHcV-52" value="+getPostById(Long id): Post" style="text;strokeColor=none;fillColor=none;align=left;verticalAlign=top;spacingLeft=4;spacingRight=4;overflow=hidden;rotatable=0;points=[[0,0.5],[1,0.5]];portConstraint=eastwest;whiteSpace=wrap;html=1;" vertex="1" parent="lrWGy1iKq69Qsi9InHcV-45">
          <mxGeometry y="164" width="309.5" height="26" as="geometry" />
        </mxCell>
        <mxCell id="lrWGy1iKq69Qsi9InHcV-53" value="+&lt;span style=&quot;background-color: initial;&quot;&gt;getAllPostsByUsername(String username): List&amp;lt;Post&amp;gt;&lt;/span&gt;" style="text;strokeColor=none;fillColor=none;align=left;verticalAlign=top;spacingLeft=4;spacingRight=4;overflow=hidden;rotatable=0;points=[[0,0.5],[1,0.5]];portConstraint=eastwest;whiteSpace=wrap;html=1;" vertex="1" parent="lrWGy1iKq69Qsi9InHcV-45">
          <mxGeometry y="190" width="309.5" height="26" as="geometry" />
        </mxCell>
        <mxCell id="lrWGy1iKq69Qsi9InHcV-54" value="-verifyPost(Post post): void" style="text;strokeColor=none;fillColor=none;align=left;verticalAlign=top;spacingLeft=4;spacingRight=4;overflow=hidden;rotatable=0;points=[[0,0.5],[1,0.5]];portConstraint=eastwest;whiteSpace=wrap;html=1;" vertex="1" parent="lrWGy1iKq69Qsi9InHcV-45">
          <mxGeometry y="216" width="309.5" height="26" as="geometry" />
        </mxCell>
        <mxCell id="lrWGy1iKq69Qsi9InHcV-55" value="UserController" style="swimlane;fontStyle=1;align=center;verticalAlign=top;childLayout=stackLayout;horizontal=1;startSize=26;horizontalStack=0;resizeParent=1;resizeParentMax=0;resizeLast=0;collapsible=1;marginBottom=0;whiteSpace=wrap;html=1;" vertex="1" parent="1">
          <mxGeometry x="771" y="542" width="333" height="242" as="geometry" />
        </mxCell>
        <mxCell id="lrWGy1iKq69Qsi9InHcV-56" value="-userRepository: UserRepository" style="text;strokeColor=none;fillColor=none;align=left;verticalAlign=top;spacingLeft=4;spacingRight=4;overflow=hidden;rotatable=0;points=[[0,0.5],[1,0.5]];portConstraint=eastwest;whiteSpace=wrap;html=1;" vertex="1" parent="lrWGy1iKq69Qsi9InHcV-55">
          <mxGeometry y="26" width="333" height="26" as="geometry" />
        </mxCell>
        <mxCell id="lrWGy1iKq69Qsi9InHcV-57" value="-authManager: AuthenticationManager" style="text;strokeColor=none;fillColor=none;align=left;verticalAlign=top;spacingLeft=4;spacingRight=4;overflow=hidden;rotatable=0;points=[[0,0.5],[1,0.5]];portConstraint=eastwest;whiteSpace=wrap;html=1;" vertex="1" parent="lrWGy1iKq69Qsi9InHcV-55">
          <mxGeometry y="52" width="333" height="26" as="geometry" />
        </mxCell>
        <mxCell id="lrWGy1iKq69Qsi9InHcV-58" value="-rememberMeServices: RememberMeServices" style="text;strokeColor=none;fillColor=none;align=left;verticalAlign=top;spacingLeft=4;spacingRight=4;overflow=hidden;rotatable=0;points=[[0,0.5],[1,0.5]];portConstraint=eastwest;whiteSpace=wrap;html=1;" vertex="1" parent="lrWGy1iKq69Qsi9InHcV-55">
          <mxGeometry y="78" width="333" height="26" as="geometry" />
        </mxCell>
        <mxCell id="lrWGy1iKq69Qsi9InHcV-59" value="" style="line;strokeWidth=1;fillColor=none;align=left;verticalAlign=middle;spacingTop=-1;spacingLeft=3;spacingRight=3;rotatable=0;labelPosition=right;points=[];portConstraint=eastwest;strokeColor=inherit;" vertex="1" parent="lrWGy1iKq69Qsi9InHcV-55">
          <mxGeometry y="104" width="333" height="8" as="geometry" />
        </mxCell>
        <mxCell id="lrWGy1iKq69Qsi9InHcV-60" value="+login(UserDTO userData): ResponseEntity" style="text;strokeColor=none;fillColor=none;align=left;verticalAlign=top;spacingLeft=4;spacingRight=4;overflow=hidden;rotatable=0;points=[[0,0.5],[1,0.5]];portConstraint=eastwest;whiteSpace=wrap;html=1;" vertex="1" parent="lrWGy1iKq69Qsi9InHcV-55">
          <mxGeometry y="112" width="333" height="26" as="geometry" />
        </mxCell>
        <mxCell id="lrWGy1iKq69Qsi9InHcV-61" value="+register(UserDTO userData): ResponseEntity" style="text;strokeColor=none;fillColor=none;align=left;verticalAlign=top;spacingLeft=4;spacingRight=4;overflow=hidden;rotatable=0;points=[[0,0.5],[1,0.5]];portConstraint=eastwest;whiteSpace=wrap;html=1;" vertex="1" parent="lrWGy1iKq69Qsi9InHcV-55">
          <mxGeometry y="138" width="333" height="26" as="geometry" />
        </mxCell>
        <mxCell id="lrWGy1iKq69Qsi9InHcV-62" value="+logout(): ResponseEntity" style="text;strokeColor=none;fillColor=none;align=left;verticalAlign=top;spacingLeft=4;spacingRight=4;overflow=hidden;rotatable=0;points=[[0,0.5],[1,0.5]];portConstraint=eastwest;whiteSpace=wrap;html=1;" vertex="1" parent="lrWGy1iKq69Qsi9InHcV-55">
          <mxGeometry y="164" width="333" height="26" as="geometry" />
        </mxCell>
        <mxCell id="lrWGy1iKq69Qsi9InHcV-63" value="+getUserFromSession(): User" style="text;strokeColor=none;fillColor=none;align=left;verticalAlign=top;spacingLeft=4;spacingRight=4;overflow=hidden;rotatable=0;points=[[0,0.5],[1,0.5]];portConstraint=eastwest;whiteSpace=wrap;html=1;" vertex="1" parent="lrWGy1iKq69Qsi9InHcV-55">
          <mxGeometry y="190" width="333" height="26" as="geometry" />
        </mxCell>
        <mxCell id="lrWGy1iKq69Qsi9InHcV-64" value="+isAuthorized(Post post): Boolean" style="text;strokeColor=none;fillColor=none;align=left;verticalAlign=top;spacingLeft=4;spacingRight=4;overflow=hidden;rotatable=0;points=[[0,0.5],[1,0.5]];portConstraint=eastwest;whiteSpace=wrap;html=1;" vertex="1" parent="lrWGy1iKq69Qsi9InHcV-55">
          <mxGeometry y="216" width="333" height="26" as="geometry" />
        </mxCell>
        <mxCell id="lrWGy1iKq69Qsi9InHcV-65" value="Post&lt;span style=&quot;background-color: initial;&quot;&gt;Controller&lt;/span&gt;" style="swimlane;fontStyle=1;align=center;verticalAlign=top;childLayout=stackLayout;horizontal=1;startSize=26;horizontalStack=0;resizeParent=1;resizeParentMax=0;resizeLast=0;collapsible=1;marginBottom=0;whiteSpace=wrap;html=1;" vertex="1" parent="1">
          <mxGeometry x="771" y="296" width="333" height="164" as="geometry" />
        </mxCell>
        <mxCell id="lrWGy1iKq69Qsi9InHcV-66" value="-postService: PostService" style="text;strokeColor=none;fillColor=none;align=left;verticalAlign=top;spacingLeft=4;spacingRight=4;overflow=hidden;rotatable=0;points=[[0,0.5],[1,0.5]];portConstraint=eastwest;whiteSpace=wrap;html=1;" vertex="1" parent="lrWGy1iKq69Qsi9InHcV-65">
          <mxGeometry y="26" width="333" height="26" as="geometry" />
        </mxCell>
        <mxCell id="lrWGy1iKq69Qsi9InHcV-67" value="-userRepository: UserRepository" style="text;strokeColor=none;fillColor=none;align=left;verticalAlign=top;spacingLeft=4;spacingRight=4;overflow=hidden;rotatable=0;points=[[0,0.5],[1,0.5]];portConstraint=eastwest;whiteSpace=wrap;html=1;" vertex="1" parent="lrWGy1iKq69Qsi9InHcV-65">
          <mxGeometry y="52" width="333" height="26" as="geometry" />
        </mxCell>
        <mxCell id="lrWGy1iKq69Qsi9InHcV-68" value="" style="line;strokeWidth=1;fillColor=none;align=left;verticalAlign=middle;spacingTop=-1;spacingLeft=3;spacingRight=3;rotatable=0;labelPosition=right;points=[];portConstraint=eastwest;strokeColor=inherit;" vertex="1" parent="lrWGy1iKq69Qsi9InHcV-65">
          <mxGeometry y="78" width="333" height="8" as="geometry" />
        </mxCell>
        <mxCell id="lrWGy1iKq69Qsi9InHcV-69" value="+newPost(Post post): ResponseEntity" style="text;strokeColor=none;fillColor=none;align=left;verticalAlign=top;spacingLeft=4;spacingRight=4;overflow=hidden;rotatable=0;points=[[0,0.5],[1,0.5]];portConstraint=eastwest;whiteSpace=wrap;html=1;" vertex="1" parent="lrWGy1iKq69Qsi9InHcV-65">
          <mxGeometry y="86" width="333" height="26" as="geometry" />
        </mxCell>
        <mxCell id="lrWGy1iKq69Qsi9InHcV-70" value="+deletePost(Long id): ResponseEntity" style="text;strokeColor=none;fillColor=none;align=left;verticalAlign=top;spacingLeft=4;spacingRight=4;overflow=hidden;rotatable=0;points=[[0,0.5],[1,0.5]];portConstraint=eastwest;whiteSpace=wrap;html=1;" vertex="1" parent="lrWGy1iKq69Qsi9InHcV-65">
          <mxGeometry y="112" width="333" height="26" as="geometry" />
        </mxCell>
        <mxCell id="lrWGy1iKq69Qsi9InHcV-71" value="+updatePost(Long id, Post post): ResponseEntity" style="text;strokeColor=none;fillColor=none;align=left;verticalAlign=top;spacingLeft=4;spacingRight=4;overflow=hidden;rotatable=0;points=[[0,0.5],[1,0.5]];portConstraint=eastwest;whiteSpace=wrap;html=1;" vertex="1" parent="lrWGy1iKq69Qsi9InHcV-65">
          <mxGeometry y="138" width="333" height="26" as="geometry" />
        </mxCell>
        <mxCell id="lrWGy1iKq69Qsi9InHcV-72" style="edgeStyle=none;curved=1;rounded=0;orthogonalLoop=1;jettySize=auto;html=1;entryX=0;entryY=0.5;entryDx=0;entryDy=0;fontSize=12;startSize=8;endSize=8;endArrow=open;endFill=0;" edge="1" parent="1" source="lrWGy1iKq69Qsi9InHcV-73" target="lrWGy1iKq69Qsi9InHcV-69">
          <mxGeometry relative="1" as="geometry" />
        </mxCell>
        <mxCell id="lrWGy1iKq69Qsi9InHcV-73" value="WebController" style="swimlane;fontStyle=1;align=center;verticalAlign=top;childLayout=stackLayout;horizontal=1;startSize=26;horizontalStack=0;resizeParent=1;resizeParentMax=0;resizeLast=0;collapsible=1;marginBottom=0;whiteSpace=wrap;html=1;" vertex="1" parent="1">
          <mxGeometry x="421" y="469.5" width="254" height="86" as="geometry" />
        </mxCell>
        <mxCell id="lrWGy1iKq69Qsi9InHcV-74" value="-postService: PostService" style="text;strokeColor=none;fillColor=none;align=left;verticalAlign=top;spacingLeft=4;spacingRight=4;overflow=hidden;rotatable=0;points=[[0,0.5],[1,0.5]];portConstraint=eastwest;whiteSpace=wrap;html=1;" vertex="1" parent="lrWGy1iKq69Qsi9InHcV-73">
          <mxGeometry y="26" width="254" height="26" as="geometry" />
        </mxCell>
        <mxCell id="lrWGy1iKq69Qsi9InHcV-75" value="" style="line;strokeWidth=1;fillColor=none;align=left;verticalAlign=middle;spacingTop=-1;spacingLeft=3;spacingRight=3;rotatable=0;labelPosition=right;points=[];portConstraint=eastwest;strokeColor=inherit;" vertex="1" parent="lrWGy1iKq69Qsi9InHcV-73">
          <mxGeometry y="52" width="254" height="8" as="geometry" />
        </mxCell>
        <mxCell id="lrWGy1iKq69Qsi9InHcV-76" value="// Methods that redirect users to HTML pages" style="text;strokeColor=none;fillColor=none;align=left;verticalAlign=top;spacingLeft=4;spacingRight=4;overflow=hidden;rotatable=0;points=[[0,0.5],[1,0.5]];portConstraint=eastwest;whiteSpace=wrap;html=1;" vertex="1" parent="lrWGy1iKq69Qsi9InHcV-73">
          <mxGeometry y="60" width="254" height="26" as="geometry" />
        </mxCell>
        <mxCell id="lrWGy1iKq69Qsi9InHcV-77" style="edgeStyle=none;curved=1;rounded=0;orthogonalLoop=1;jettySize=auto;html=1;entryX=0;entryY=0.5;entryDx=0;entryDy=0;fontSize=12;startSize=8;endSize=8;endArrow=open;endFill=0;" edge="1" parent="1" source="lrWGy1iKq69Qsi9InHcV-60" target="lrWGy1iKq69Qsi9InHcV-42">
          <mxGeometry relative="1" as="geometry" />
        </mxCell>
        <mxCell id="lrWGy1iKq69Qsi9InHcV-78" style="edgeStyle=none;curved=1;rounded=0;orthogonalLoop=1;jettySize=auto;html=1;entryX=0;entryY=0.5;entryDx=0;entryDy=0;fontSize=12;startSize=8;endSize=8;endArrow=open;endFill=0;" edge="1" parent="1" source="lrWGy1iKq69Qsi9InHcV-42" target="lrWGy1iKq69Qsi9InHcV-40">
          <mxGeometry relative="1" as="geometry" />
        </mxCell>
        <mxCell id="lrWGy1iKq69Qsi9InHcV-79" style="edgeStyle=none;curved=1;rounded=0;orthogonalLoop=1;jettySize=auto;html=1;entryX=-0.011;entryY=0.257;entryDx=0;entryDy=0;entryPerimeter=0;fontSize=12;startSize=8;endSize=8;endArrow=open;endFill=0;" edge="1" parent="1" source="lrWGy1iKq69Qsi9InHcV-40" target="lrWGy1iKq69Qsi9InHcV-22">
          <mxGeometry relative="1" as="geometry" />
        </mxCell>
        <mxCell id="lrWGy1iKq69Qsi9InHcV-80" style="edgeStyle=none;curved=1;rounded=0;orthogonalLoop=1;jettySize=auto;html=1;fontSize=12;startSize=8;endSize=8;endArrow=open;endFill=0;" edge="1" parent="1" source="lrWGy1iKq69Qsi9InHcV-39">
          <mxGeometry relative="1" as="geometry">
            <mxPoint x="2009" y="375.5" as="targetPoint" />
          </mxGeometry>
        </mxCell>
        <mxCell id="lrWGy1iKq69Qsi9InHcV-81" style="edgeStyle=none;curved=1;rounded=0;orthogonalLoop=1;jettySize=auto;html=1;fontSize=12;startSize=8;endSize=8;entryX=-0.002;entryY=0.578;entryDx=0;entryDy=0;entryPerimeter=0;endArrow=open;endFill=0;" edge="1" parent="1" source="lrWGy1iKq69Qsi9InHcV-50" target="lrWGy1iKq69Qsi9InHcV-39">
          <mxGeometry relative="1" as="geometry">
            <mxPoint x="1581" y="382" as="targetPoint" />
          </mxGeometry>
        </mxCell>
        <mxCell id="lrWGy1iKq69Qsi9InHcV-82" style="edgeStyle=none;curved=1;rounded=0;orthogonalLoop=1;jettySize=auto;html=1;entryX=0;entryY=0.5;entryDx=0;entryDy=0;fontSize=12;startSize=8;endSize=8;endArrow=open;endFill=0;" edge="1" parent="1" source="lrWGy1iKq69Qsi9InHcV-69" target="lrWGy1iKq69Qsi9InHcV-50">
          <mxGeometry relative="1" as="geometry" />
        </mxCell>
        <mxCell id="lrWGy1iKq69Qsi9InHcV-83" style="edgeStyle=orthogonalEdgeStyle;curved=1;rounded=0;orthogonalLoop=1;jettySize=auto;html=1;entryX=0.5;entryY=0;entryDx=0;entryDy=0;fontSize=12;startSize=8;endSize=8;endArrow=open;endFill=0;" edge="1" parent="1" source="lrWGy1iKq69Qsi9InHcV-71" target="lrWGy1iKq69Qsi9InHcV-40">
          <mxGeometry relative="1" as="geometry">
            <Array as="points">
              <mxPoint x="937" y="519.5" />
              <mxPoint x="1730" y="519.5" />
            </Array>
          </mxGeometry>
        </mxCell>
        <mxCell id="lrWGy1iKq69Qsi9InHcV-84" style="edgeStyle=none;curved=1;rounded=0;orthogonalLoop=1;jettySize=auto;html=1;entryX=0;entryY=0.5;entryDx=0;entryDy=0;fontSize=12;endArrow=none;endFill=0;" edge="1" parent="1" source="lrWGy1iKq69Qsi9InHcV-85" target="lrWGy1iKq69Qsi9InHcV-74">
          <mxGeometry relative="1" as="geometry" />
        </mxCell>
        <mxCell id="lrWGy1iKq69Qsi9InHcV-85" value="HTML&lt;div&gt;pages&lt;/div&gt;" style="shape=note;whiteSpace=wrap;html=1;backgroundOutline=1;darkOpacity=0.05;" vertex="1" parent="1">
          <mxGeometry x="241" y="458.5" width="80" height="100" as="geometry" />
        </mxCell>
        <mxCell id="lrWGy1iKq69Qsi9InHcV-86" style="edgeStyle=none;curved=1;rounded=0;orthogonalLoop=1;jettySize=auto;html=1;entryX=0;entryY=0.5;entryDx=0;entryDy=0;fontSize=12;startSize=8;endSize=8;endArrow=open;endFill=0;" edge="1" parent="1" source="lrWGy1iKq69Qsi9InHcV-76" target="lrWGy1iKq69Qsi9InHcV-58">
          <mxGeometry relative="1" as="geometry" />
        </mxCell>
        <mxCell id="lrWGy1iKq69Qsi9InHcV-87" value="0&lt;span style=&quot;background-color: initial;&quot;&gt;..*&lt;/span&gt;" style="text;html=1;align=center;verticalAlign=middle;resizable=0;points=[];autosize=1;strokeColor=none;fillColor=none;fontSize=16;" vertex="1" parent="1">
          <mxGeometry x="2166" y="503" width="42" height="31" as="geometry" />
        </mxCell>
        <mxCell id="lrWGy1iKq69Qsi9InHcV-88" value="1" style="text;html=1;align=center;verticalAlign=middle;resizable=0;points=[];autosize=1;strokeColor=none;fillColor=none;fontSize=16;" vertex="1" parent="1">
          <mxGeometry x="2165" y="527.5" width="27" height="31" as="geometry" />
        </mxCell>
      </root>
    </mxGraphModel>
  </diagram>
</mxfile>
